<?xml version="1.0" encoding="UTF-8" standalone="no"?>
<svg width="294px" height="100px" viewBox="0 0 294 100" version="1.1" xmlns="http://www.w3.org/2000/svg" xmlns:xlink="http://www.w3.org/1999/xlink" xmlns:sketch="http://www.bohemiancoding.com/sketch/ns">
    <!-- Generator: Sketch 3.3.2 (12043) - http://www.bohemiancoding.com/sketch -->
    <title>logo_landwehr</title>
    <desc>Created with Sketch.</desc>
    <defs></defs>
    <g id="Page-1" stroke="none" stroke-width="1" fill="none" fill-rule="evenodd" sketch:type="MSPage">
        <g id="logo_landwehr" sketch:type="MSLayerGroup" fill="#00497F">
            <path d="M63.894,95.229 C63.894,95.561 63.831,95.854 63.706,96.108 C63.58,96.362 63.411,96.572 63.199,96.736 C62.948,96.934 62.672,97.074 62.372,97.158 C62.071,97.241 61.689,97.283 61.226,97.283 L58.858,97.283 L58.858,90.606 L60.836,90.606 C61.323,90.606 61.688,90.624 61.93,90.66 C62.172,90.696 62.404,90.77 62.625,90.884 C62.87,91.013 63.048,91.178 63.159,91.379 C63.269,91.582 63.325,91.823 63.325,92.104 C63.325,92.421 63.244,92.69 63.082,92.913 C62.921,93.136 62.706,93.315 62.437,93.449 L62.437,93.485 C62.888,93.578 63.244,93.776 63.504,94.079 C63.764,94.383 63.894,94.766 63.894,95.229 L63.894,95.229 Z M62.401,92.22 C62.401,92.059 62.374,91.923 62.32,91.812 C62.266,91.702 62.18,91.612 62.06,91.543 C61.919,91.462 61.749,91.413 61.549,91.393 C61.349,91.374 61.101,91.364 60.805,91.364 L59.746,91.364 L59.746,93.292 L60.894,93.292 C61.172,93.292 61.394,93.278 61.558,93.25 C61.722,93.221 61.874,93.162 62.015,93.072 C62.156,92.983 62.255,92.867 62.313,92.725 C62.372,92.583 62.401,92.415 62.401,92.22 L62.401,92.22 Z M62.97,95.265 C62.97,94.996 62.93,94.783 62.849,94.624 C62.769,94.466 62.622,94.331 62.41,94.22 C62.266,94.145 62.092,94.097 61.887,94.075 C61.683,94.052 61.434,94.041 61.141,94.041 L59.746,94.041 L59.746,96.525 L60.921,96.525 C61.31,96.525 61.628,96.505 61.876,96.465 C62.124,96.424 62.328,96.351 62.486,96.243 C62.653,96.126 62.776,95.993 62.854,95.844 C62.932,95.694 62.97,95.501 62.97,95.265 L62.97,95.265 Z" id="Fill-1" sketch:type="MSShapeGroup"></path>
            <path d="M65.096,90.306 L65.939,90.306 L65.939,97.283 L65.096,97.283 L65.096,90.306 Z" id="Fill-2" sketch:type="MSShapeGroup"></path>
            <path d="M71.499,97.283 L70.661,97.283 L70.661,96.75 C70.586,96.8 70.485,96.872 70.358,96.962 C70.231,97.054 70.107,97.127 69.988,97.18 C69.848,97.249 69.686,97.306 69.504,97.353 C69.321,97.399 69.107,97.422 68.862,97.422 C68.411,97.422 68.028,97.273 67.714,96.974 C67.401,96.675 67.244,96.294 67.244,95.83 C67.244,95.451 67.325,95.144 67.488,94.909 C67.651,94.674 67.883,94.489 68.185,94.355 C68.49,94.22 68.856,94.129 69.284,94.082 C69.711,94.034 70.17,93.998 70.661,93.974 L70.661,93.844 C70.661,93.652 70.627,93.494 70.56,93.369 C70.493,93.243 70.396,93.144 70.27,93.072 C70.151,93.004 70.007,92.957 69.84,92.934 C69.673,92.91 69.498,92.897 69.315,92.897 C69.094,92.897 68.848,92.927 68.576,92.985 C68.304,93.043 68.022,93.128 67.732,93.238 L67.687,93.238 L67.687,92.382 C67.852,92.337 68.09,92.288 68.401,92.234 C68.711,92.18 69.018,92.153 69.32,92.153 C69.673,92.153 69.98,92.182 70.242,92.241 C70.503,92.299 70.729,92.398 70.921,92.539 C71.109,92.676 71.252,92.854 71.352,93.072 C71.45,93.29 71.499,93.561 71.499,93.884 L71.499,97.283 L71.499,97.283 Z M70.661,96.05 L70.661,94.655 C70.404,94.67 70.101,94.693 69.752,94.723 C69.404,94.752 69.128,94.796 68.925,94.853 C68.683,94.921 68.487,95.028 68.338,95.173 C68.188,95.318 68.114,95.518 68.114,95.772 C68.114,96.059 68.2,96.275 68.373,96.42 C68.547,96.565 68.812,96.638 69.167,96.638 C69.463,96.638 69.734,96.58 69.979,96.465 C70.224,96.35 70.452,96.211 70.661,96.05 L70.661,96.05 Z" id="Fill-3" sketch:type="MSShapeGroup"></path>
            <path d="M76.701,95.839 C76.701,96.297 76.512,96.672 76.134,96.965 C75.755,97.258 75.239,97.404 74.584,97.404 C74.214,97.404 73.873,97.36 73.565,97.272 C73.255,97.184 72.996,97.087 72.786,96.983 L72.786,96.037 L72.831,96.037 C73.097,96.237 73.393,96.396 73.719,96.514 C74.045,96.632 74.357,96.691 74.656,96.691 C75.027,96.691 75.317,96.631 75.526,96.512 C75.735,96.393 75.84,96.204 75.84,95.947 C75.84,95.749 75.783,95.6 75.669,95.499 C75.556,95.397 75.338,95.31 75.015,95.238 C74.895,95.211 74.739,95.18 74.546,95.144 C74.353,95.108 74.178,95.069 74.019,95.028 C73.58,94.911 73.268,94.74 73.084,94.514 C72.9,94.289 72.809,94.011 72.809,93.682 C72.809,93.476 72.851,93.282 72.937,93.099 C73.021,92.917 73.151,92.754 73.324,92.61 C73.492,92.47 73.705,92.359 73.963,92.276 C74.222,92.194 74.511,92.153 74.831,92.153 C75.13,92.153 75.433,92.19 75.739,92.263 C76.045,92.336 76.3,92.425 76.504,92.53 L76.504,93.431 L76.459,93.431 C76.244,93.273 75.982,93.139 75.674,93.03 C75.366,92.921 75.065,92.866 74.768,92.866 C74.46,92.866 74.2,92.925 73.988,93.043 C73.776,93.162 73.669,93.337 73.669,93.57 C73.669,93.776 73.734,93.932 73.862,94.037 C73.988,94.141 74.191,94.227 74.472,94.292 C74.628,94.328 74.802,94.364 74.995,94.4 C75.187,94.435 75.348,94.469 75.477,94.498 C75.869,94.588 76.17,94.742 76.383,94.96 C76.595,95.182 76.701,95.475 76.701,95.839" id="Fill-4" sketch:type="MSShapeGroup"></path>
            <path d="M82.177,94.781 C82.177,95.597 81.967,96.241 81.549,96.714 C81.13,97.186 80.57,97.422 79.867,97.422 C79.159,97.422 78.596,97.186 78.179,96.714 C77.762,96.241 77.553,95.597 77.553,94.781 C77.553,93.965 77.762,93.32 78.179,92.846 C78.596,92.372 79.159,92.135 79.867,92.135 C80.57,92.135 81.13,92.372 81.549,92.846 C81.967,93.32 82.177,93.965 82.177,94.781 L82.177,94.781 Z M81.307,94.781 C81.307,94.132 81.18,93.65 80.926,93.335 C80.671,93.019 80.319,92.862 79.867,92.862 C79.41,92.862 79.055,93.019 78.802,93.335 C78.55,93.65 78.423,94.132 78.423,94.781 C78.423,95.409 78.55,95.885 78.805,96.209 C79.059,96.534 79.413,96.696 79.867,96.696 C80.316,96.696 80.668,96.535 80.923,96.214 C81.179,95.893 81.307,95.415 81.307,94.781 L81.307,94.781 Z" id="Fill-5" sketch:type="MSShapeGroup"></path>
            <path d="M86.607,93.193 L86.562,93.193 C86.437,93.164 86.315,93.142 86.197,93.128 C86.079,93.115 85.939,93.108 85.777,93.108 C85.517,93.108 85.266,93.166 85.024,93.281 C84.782,93.396 84.549,93.545 84.325,93.727 L84.325,97.283 L83.481,97.283 L83.481,92.274 L84.325,92.274 L84.325,93.014 C84.659,92.745 84.955,92.555 85.21,92.442 C85.466,92.33 85.727,92.274 85.993,92.274 C86.139,92.274 86.245,92.278 86.311,92.286 C86.377,92.293 86.476,92.307 86.607,92.328 L86.607,93.193" id="Fill-6" sketch:type="MSShapeGroup"></path>
            <path d="M91.105,96.969 C90.824,97.104 90.557,97.208 90.305,97.283 C90.052,97.358 89.784,97.396 89.499,97.396 C89.138,97.396 88.806,97.342 88.504,97.236 C88.202,97.13 87.943,96.969 87.728,96.754 C87.51,96.539 87.341,96.267 87.222,95.938 C87.102,95.609 87.042,95.225 87.042,94.786 C87.042,93.966 87.267,93.324 87.717,92.857 C88.167,92.391 88.761,92.158 89.499,92.158 C89.787,92.158 90.068,92.198 90.345,92.279 C90.621,92.359 90.874,92.458 91.105,92.575 L91.105,93.512 L91.06,93.512 C90.803,93.311 90.538,93.158 90.264,93.05 C89.991,92.942 89.724,92.889 89.464,92.889 C88.985,92.889 88.608,93.049 88.331,93.371 C88.055,93.692 87.916,94.164 87.916,94.786 C87.916,95.389 88.052,95.853 88.322,96.178 C88.593,96.502 88.973,96.665 89.464,96.665 C89.634,96.665 89.808,96.642 89.984,96.597 C90.16,96.552 90.319,96.494 90.459,96.422 C90.581,96.359 90.697,96.293 90.805,96.223 C90.912,96.152 90.997,96.092 91.06,96.041 L91.105,96.041 L91.105,96.969" id="Fill-7" sketch:type="MSShapeGroup"></path>
            <path d="M96.374,97.283 L95.531,97.283 L95.531,94.431 C95.531,94.201 95.518,93.985 95.49,93.783 C95.463,93.581 95.414,93.424 95.342,93.31 C95.268,93.185 95.16,93.091 95.019,93.03 C94.879,92.969 94.697,92.938 94.473,92.938 C94.242,92.938 94.001,92.995 93.75,93.108 C93.499,93.222 93.259,93.367 93.029,93.543 L93.029,97.283 L92.185,97.283 L92.185,90.306 L93.029,90.306 L93.029,92.83 C93.291,92.612 93.563,92.442 93.845,92.319 C94.125,92.197 94.414,92.135 94.71,92.135 C95.251,92.135 95.664,92.298 95.948,92.624 C96.232,92.95 96.374,93.419 96.374,94.032 L96.374,97.283" id="Fill-8" sketch:type="MSShapeGroup"></path>
            <path d="M102.19,94.866 L98.499,94.866 C98.499,95.174 98.545,95.442 98.638,95.671 C98.731,95.9 98.858,96.087 99.019,96.234 C99.175,96.377 99.359,96.485 99.573,96.557 C99.787,96.628 100.022,96.665 100.28,96.665 C100.621,96.665 100.963,96.596 101.309,96.46 C101.654,96.324 101.9,96.19 102.046,96.059 L102.091,96.059 L102.091,96.978 C101.807,97.098 101.517,97.198 101.221,97.279 C100.925,97.359 100.614,97.4 100.289,97.4 C99.457,97.4 98.809,97.175 98.342,96.725 C97.876,96.275 97.643,95.636 97.643,94.808 C97.643,93.989 97.866,93.338 98.313,92.857 C98.76,92.376 99.348,92.135 100.078,92.135 C100.753,92.135 101.274,92.332 101.641,92.727 C102.007,93.122 102.19,93.682 102.19,94.409 L102.19,94.866 L102.19,94.866 Z M101.369,94.22 C101.366,93.778 101.255,93.435 101.035,93.193 C100.815,92.951 100.481,92.83 100.033,92.83 C99.581,92.83 99.222,92.963 98.955,93.229 C98.687,93.496 98.535,93.826 98.499,94.22 L101.369,94.22 L101.369,94.22 Z" id="Fill-9" sketch:type="MSShapeGroup"></path>
            <path d="M107.046,95.839 C107.046,96.297 106.857,96.672 106.479,96.965 C106.101,97.258 105.584,97.404 104.93,97.404 C104.559,97.404 104.219,97.36 103.91,97.272 C103.6,97.184 103.341,97.087 103.131,96.983 L103.131,96.037 L103.176,96.037 C103.442,96.237 103.738,96.396 104.064,96.514 C104.39,96.632 104.703,96.691 105.001,96.691 C105.372,96.691 105.662,96.631 105.872,96.512 C106.081,96.393 106.185,96.204 106.185,95.947 C106.185,95.749 106.128,95.6 106.015,95.499 C105.901,95.397 105.683,95.31 105.36,95.238 C105.241,95.211 105.084,95.18 104.892,95.144 C104.699,95.108 104.523,95.069 104.365,95.028 C103.925,94.911 103.613,94.74 103.43,94.514 C103.246,94.289 103.154,94.011 103.154,93.682 C103.154,93.476 103.196,93.282 103.282,93.099 C103.367,92.917 103.496,92.754 103.669,92.61 C103.837,92.47 104.05,92.359 104.309,92.276 C104.567,92.194 104.856,92.153 105.176,92.153 C105.475,92.153 105.778,92.19 106.084,92.263 C106.391,92.336 106.645,92.425 106.849,92.53 L106.849,93.431 L106.804,93.431 C106.589,93.273 106.327,93.139 106.019,93.03 C105.711,92.921 105.41,92.866 105.113,92.866 C104.806,92.866 104.545,92.925 104.333,93.043 C104.121,93.162 104.015,93.337 104.015,93.57 C104.015,93.776 104.079,93.932 104.207,94.037 C104.333,94.141 104.537,94.227 104.817,94.292 C104.973,94.328 105.147,94.364 105.34,94.4 C105.533,94.435 105.693,94.469 105.822,94.498 C106.214,94.588 106.516,94.742 106.728,94.96 C106.94,95.182 107.046,95.475 107.046,95.839" id="Fill-10" sketch:type="MSShapeGroup"></path>
            <path d="M110.854,97.238 C110.695,97.28 110.522,97.315 110.336,97.341 C110.149,97.368 109.982,97.382 109.836,97.382 C109.325,97.382 108.936,97.245 108.67,96.969 C108.404,96.694 108.271,96.253 108.271,95.647 L108.271,92.983 L107.701,92.983 L107.701,92.274 L108.271,92.274 L108.271,90.835 L109.114,90.835 L109.114,92.274 L110.854,92.274 L110.854,92.983 L109.114,92.983 L109.114,95.265 C109.114,95.528 109.12,95.734 109.132,95.882 C109.144,96.03 109.185,96.168 109.257,96.297 C109.323,96.416 109.414,96.504 109.529,96.559 C109.644,96.614 109.819,96.642 110.056,96.642 C110.193,96.642 110.336,96.622 110.486,96.581 C110.636,96.541 110.743,96.507 110.809,96.481 L110.854,96.481 L110.854,97.238" id="Fill-11" sketch:type="MSShapeGroup"></path>
            <path d="M116.064,94.866 L112.374,94.866 C112.374,95.174 112.42,95.442 112.513,95.671 C112.605,95.9 112.732,96.087 112.894,96.234 C113.049,96.377 113.234,96.485 113.448,96.557 C113.662,96.628 113.897,96.665 114.154,96.665 C114.495,96.665 114.838,96.596 115.183,96.46 C115.528,96.324 115.774,96.19 115.921,96.059 L115.966,96.059 L115.966,96.978 C115.682,97.098 115.392,97.198 115.096,97.279 C114.8,97.359 114.489,97.4 114.163,97.4 C113.332,97.4 112.683,97.175 112.217,96.725 C111.75,96.275 111.517,95.636 111.517,94.808 C111.517,93.989 111.741,93.338 112.187,92.857 C112.635,92.376 113.223,92.135 113.952,92.135 C114.628,92.135 115.149,92.332 115.515,92.727 C115.881,93.122 116.064,93.682 116.064,94.409 L116.064,94.866 L116.064,94.866 Z M115.244,94.22 C115.241,93.778 115.129,93.435 114.91,93.193 C114.69,92.951 114.356,92.83 113.907,92.83 C113.456,92.83 113.097,92.963 112.829,93.229 C112.561,93.496 112.41,93.826 112.374,94.22 L115.244,94.22 L115.244,94.22 Z" id="Fill-12" sketch:type="MSShapeGroup"></path>
            <path d="M120.468,93.193 L120.423,93.193 C120.297,93.164 120.176,93.142 120.058,93.128 C119.939,93.115 119.8,93.108 119.638,93.108 C119.378,93.108 119.127,93.166 118.885,93.281 C118.643,93.396 118.41,93.545 118.185,93.727 L118.185,97.283 L117.342,97.283 L117.342,92.274 L118.185,92.274 L118.185,93.014 C118.52,92.745 118.815,92.555 119.071,92.442 C119.327,92.33 119.587,92.274 119.853,92.274 C120,92.274 120.106,92.278 120.172,92.286 C120.238,92.293 120.336,92.307 120.468,92.328 L120.468,93.193" id="Fill-13" sketch:type="MSShapeGroup"></path>
            <path d="M130.935,97.283 L129.783,97.283 L127.142,94.31 L126.478,95.019 L126.478,97.283 L125.59,97.283 L125.59,90.606 L126.478,90.606 L126.478,94.09 L129.72,90.606 L130.796,90.606 L127.814,93.745 L130.935,97.283" id="Fill-14" sketch:type="MSShapeGroup"></path>
            <path d="M135.487,97.283 L134.648,97.283 L134.648,96.75 C134.574,96.8 134.473,96.872 134.346,96.962 C134.219,97.054 134.095,97.127 133.976,97.18 C133.835,97.249 133.674,97.306 133.492,97.353 C133.309,97.399 133.095,97.422 132.85,97.422 C132.399,97.422 132.016,97.273 131.702,96.974 C131.389,96.675 131.231,96.294 131.231,95.83 C131.231,95.451 131.313,95.144 131.476,94.909 C131.639,94.674 131.871,94.489 132.173,94.355 C132.478,94.22 132.844,94.129 133.272,94.082 C133.699,94.034 134.158,93.998 134.648,93.974 L134.648,93.844 C134.648,93.652 134.615,93.494 134.548,93.369 C134.48,93.243 134.384,93.144 134.258,93.072 C134.139,93.004 133.995,92.957 133.828,92.934 C133.661,92.91 133.485,92.897 133.303,92.897 C133.082,92.897 132.835,92.927 132.563,92.985 C132.291,93.043 132.01,93.128 131.72,93.238 L131.675,93.238 L131.675,92.382 C131.84,92.337 132.078,92.288 132.389,92.234 C132.699,92.18 133.006,92.153 133.308,92.153 C133.661,92.153 133.968,92.182 134.229,92.241 C134.491,92.299 134.717,92.398 134.909,92.539 C135.097,92.676 135.24,92.854 135.339,93.072 C135.438,93.29 135.487,93.561 135.487,93.884 L135.487,97.283 L135.487,97.283 Z M134.648,96.05 L134.648,94.655 C134.392,94.67 134.089,94.693 133.74,94.723 C133.392,94.752 133.116,94.796 132.913,94.853 C132.671,94.921 132.475,95.028 132.326,95.173 C132.176,95.318 132.102,95.518 132.102,95.772 C132.102,96.059 132.188,96.275 132.361,96.42 C132.535,96.565 132.799,96.638 133.155,96.638 C133.451,96.638 133.722,96.58 133.967,96.465 C134.212,96.35 134.439,96.211 134.648,96.05 L134.648,96.05 Z" id="Fill-15" sketch:type="MSShapeGroup"></path>
            <path d="M141.299,97.283 L140.456,97.283 L140.456,94.431 C140.456,94.201 140.442,93.985 140.415,93.783 C140.388,93.581 140.339,93.424 140.267,93.31 C140.192,93.185 140.085,93.091 139.944,93.03 C139.804,92.969 139.622,92.938 139.397,92.938 C139.167,92.938 138.926,92.995 138.675,93.108 C138.424,93.222 138.184,93.367 137.954,93.543 L137.954,97.283 L137.11,97.283 L137.11,92.274 L137.954,92.274 L137.954,92.83 C138.216,92.612 138.488,92.442 138.769,92.319 C139.05,92.197 139.339,92.135 139.635,92.135 C140.176,92.135 140.589,92.298 140.873,92.624 C141.157,92.95 141.299,93.419 141.299,94.032 L141.299,97.283" id="Fill-16" sketch:type="MSShapeGroup"></path>
            <path d="M145.523,97.238 C145.365,97.28 145.191,97.315 145.004,97.341 C144.818,97.368 144.65,97.382 144.504,97.382 C143.994,97.382 143.605,97.245 143.34,96.969 C143.072,96.694 142.94,96.253 142.94,95.647 L142.94,92.983 L142.37,92.983 L142.37,92.274 L142.94,92.274 L142.94,90.835 L143.783,90.835 L143.783,92.274 L145.523,92.274 L145.523,92.983 L143.783,92.983 L143.783,95.265 C143.783,95.528 143.789,95.734 143.801,95.882 C143.812,96.03 143.856,96.168 143.926,96.297 C143.992,96.416 144.082,96.504 144.197,96.559 C144.312,96.614 144.488,96.642 144.725,96.642 C144.861,96.642 145.006,96.622 145.154,96.581 C145.305,96.541 145.412,96.507 145.479,96.481 L145.523,96.481 L145.523,97.238" id="Fill-17" sketch:type="MSShapeGroup"></path>
            <path d="M150.81,94.781 C150.81,95.597 150.601,96.241 150.182,96.714 C149.764,97.186 149.203,97.422 148.5,97.422 C147.792,97.422 147.228,97.186 146.812,96.714 C146.394,96.241 146.186,95.597 146.186,94.781 C146.186,93.965 146.394,93.32 146.812,92.846 C147.228,92.372 147.792,92.135 148.5,92.135 C149.203,92.135 149.764,92.372 150.182,92.846 C150.601,93.32 150.81,93.965 150.81,94.781 L150.81,94.781 Z M149.939,94.781 C149.939,94.132 149.812,93.65 149.559,93.335 C149.305,93.019 148.951,92.862 148.5,92.862 C148.043,92.862 147.687,93.019 147.435,93.335 C147.183,93.65 147.057,94.132 147.057,94.781 C147.057,95.409 147.184,95.885 147.437,96.209 C147.691,96.534 148.046,96.696 148.5,96.696 C148.948,96.696 149.301,96.535 149.557,96.214 C149.812,95.893 149.939,95.415 149.939,94.781 L149.939,94.781 Z" id="Fill-18" sketch:type="MSShapeGroup"></path>
            <path d="M156.303,97.283 L155.46,97.283 L155.46,94.431 C155.46,94.201 155.446,93.985 155.42,93.783 C155.393,93.581 155.344,93.424 155.271,93.31 C155.197,93.185 155.089,93.091 154.949,93.03 C154.809,92.969 154.626,92.938 154.401,92.938 C154.172,92.938 153.931,92.995 153.68,93.108 C153.429,93.222 153.187,93.367 152.958,93.543 L152.958,97.283 L152.115,97.283 L152.115,92.274 L152.958,92.274 L152.958,92.83 C153.221,92.612 153.493,92.442 153.774,92.319 C154.055,92.197 154.344,92.135 154.64,92.135 C155.181,92.135 155.593,92.298 155.877,92.624 C156.161,92.95 156.303,93.419 156.303,94.032 L156.303,97.283" id="Fill-19" sketch:type="MSShapeGroup"></path>
            <path d="M166.318,97.283 L165.475,97.283 L165.475,96.727 C165.19,96.951 164.919,97.123 164.659,97.243 C164.398,97.362 164.111,97.422 163.798,97.422 C163.271,97.422 162.862,97.262 162.569,96.94 C162.276,96.619 162.13,96.147 162.13,95.525 L162.13,92.274 L162.973,92.274 L162.973,95.126 C162.973,95.38 162.984,95.598 163.009,95.779 C163.032,95.959 163.083,96.114 163.161,96.243 C163.242,96.375 163.347,96.47 163.475,96.53 C163.603,96.59 163.79,96.62 164.035,96.62 C164.254,96.62 164.492,96.563 164.751,96.449 C165.009,96.335 165.251,96.19 165.475,96.014 L165.475,92.274 L166.318,92.274 L166.318,97.283" id="Fill-20" sketch:type="MSShapeGroup"></path>
            <path d="M172.165,97.283 L171.322,97.283 L171.322,94.431 C171.322,94.201 171.309,93.985 171.282,93.783 C171.255,93.581 171.206,93.424 171.134,93.31 C171.06,93.185 170.951,93.091 170.812,93.03 C170.671,92.969 170.488,92.938 170.264,92.938 C170.034,92.938 169.793,92.995 169.542,93.108 C169.291,93.222 169.05,93.367 168.82,93.543 L168.82,97.283 L167.977,97.283 L167.977,92.274 L168.82,92.274 L168.82,92.83 C169.083,92.612 169.356,92.442 169.637,92.319 C169.917,92.197 170.206,92.135 170.502,92.135 C171.043,92.135 171.455,92.298 171.739,92.624 C172.023,92.95 172.165,93.419 172.165,94.032 L172.165,97.283" id="Fill-21" sketch:type="MSShapeGroup"></path>
            <path d="M177.852,97.283 L177.008,97.283 L177.008,96.758 C176.767,96.968 176.514,97.131 176.25,97.248 C175.987,97.364 175.702,97.422 175.394,97.422 C174.796,97.422 174.321,97.192 173.97,96.731 C173.619,96.272 173.443,95.633 173.443,94.817 C173.443,94.393 173.504,94.014 173.625,93.682 C173.746,93.351 173.909,93.068 174.116,92.835 C174.319,92.607 174.556,92.434 174.827,92.315 C175.098,92.195 175.378,92.135 175.668,92.135 C175.931,92.135 176.164,92.163 176.367,92.218 C176.57,92.273 176.784,92.359 177.008,92.476 L177.008,90.306 L177.852,90.306 L177.852,97.283 L177.852,97.283 Z M177.008,96.05 L177.008,93.176 C176.781,93.074 176.578,93.004 176.398,92.965 C176.219,92.926 176.023,92.907 175.81,92.907 C175.339,92.907 174.971,93.071 174.708,93.4 C174.444,93.728 174.313,94.195 174.313,94.799 C174.313,95.394 174.415,95.846 174.618,96.155 C174.821,96.465 175.148,96.62 175.596,96.62 C175.835,96.62 176.077,96.566 176.322,96.46 C176.567,96.354 176.796,96.217 177.008,96.05 L177.008,96.05 Z" id="Fill-22" sketch:type="MSShapeGroup"></path>
            <path d="M188.669,95.377 C188.669,95.638 188.608,95.894 188.487,96.148 C188.366,96.403 188.196,96.618 187.978,96.794 C187.739,96.986 187.46,97.135 187.142,97.243 C186.823,97.351 186.44,97.404 185.991,97.404 C185.511,97.404 185.077,97.359 184.693,97.27 C184.31,97.18 183.918,97.047 183.52,96.871 L183.52,95.758 L183.584,95.758 C183.922,96.04 184.312,96.256 184.754,96.409 C185.196,96.561 185.612,96.638 186.001,96.638 C186.551,96.638 186.978,96.534 187.285,96.328 C187.592,96.122 187.745,95.847 187.745,95.503 C187.745,95.207 187.673,94.989 187.527,94.848 C187.383,94.707 187.162,94.599 186.866,94.521 C186.642,94.461 186.399,94.412 186.138,94.373 C185.876,94.334 185.599,94.285 185.306,94.225 C184.714,94.099 184.274,93.885 183.989,93.581 C183.704,93.278 183.562,92.883 183.562,92.396 C183.562,91.836 183.797,91.378 184.269,91.021 C184.742,90.664 185.342,90.485 186.068,90.485 C186.537,90.485 186.968,90.53 187.359,90.62 C187.751,90.709 188.098,90.82 188.399,90.951 L188.399,92 L188.337,92 C188.083,91.786 187.749,91.607 187.335,91.465 C186.921,91.323 186.497,91.252 186.063,91.252 C185.588,91.252 185.206,91.351 184.918,91.548 C184.629,91.745 184.485,91.999 184.485,92.31 C184.485,92.588 184.557,92.807 184.7,92.965 C184.844,93.123 185.097,93.245 185.458,93.328 C185.649,93.37 185.921,93.421 186.274,93.481 C186.627,93.54 186.926,93.602 187.171,93.665 C187.667,93.796 188.041,93.995 188.292,94.261 C188.543,94.527 188.669,94.899 188.669,95.377" id="Fill-23" sketch:type="MSShapeGroup"></path>
            <path d="M192.629,97.238 C192.471,97.28 192.298,97.315 192.11,97.341 C191.924,97.368 191.757,97.382 191.61,97.382 C191.1,97.382 190.711,97.245 190.445,96.969 C190.179,96.694 190.046,96.253 190.046,95.647 L190.046,92.983 L189.477,92.983 L189.477,92.274 L190.046,92.274 L190.046,90.835 L190.889,90.835 L190.889,92.274 L192.629,92.274 L192.629,92.983 L190.889,92.983 L190.889,95.265 C190.889,95.528 190.894,95.734 190.907,95.882 C190.919,96.03 190.961,96.168 191.032,96.297 C191.098,96.416 191.188,96.504 191.304,96.559 C191.419,96.614 191.595,96.642 191.83,96.642 C191.968,96.642 192.111,96.622 192.261,96.581 C192.41,96.541 192.519,96.507 192.584,96.481 L192.629,96.481 L192.629,97.238" id="Fill-24" sketch:type="MSShapeGroup"></path>
            <path d="M197.538,97.283 L196.7,97.283 L196.7,96.75 C196.625,96.8 196.524,96.872 196.397,96.962 C196.269,97.054 196.146,97.127 196.027,97.18 C195.887,97.249 195.726,97.306 195.543,97.353 C195.36,97.399 195.146,97.422 194.901,97.422 C194.45,97.422 194.067,97.273 193.754,96.974 C193.439,96.675 193.283,96.294 193.283,95.83 C193.283,95.451 193.364,95.144 193.527,94.909 C193.69,94.674 193.923,94.489 194.225,94.355 C194.529,94.22 194.895,94.129 195.323,94.082 C195.751,94.034 196.21,93.998 196.7,93.974 L196.7,93.844 C196.7,93.652 196.666,93.494 196.599,93.369 C196.531,93.243 196.435,93.144 196.31,93.072 C196.19,93.004 196.047,92.957 195.879,92.934 C195.712,92.91 195.537,92.897 195.354,92.897 C195.133,92.897 194.887,92.927 194.614,92.985 C194.343,93.043 194.062,93.128 193.771,93.238 L193.727,93.238 L193.727,92.382 C193.891,92.337 194.129,92.288 194.439,92.234 C194.751,92.18 195.057,92.153 195.359,92.153 C195.712,92.153 196.019,92.182 196.28,92.241 C196.542,92.299 196.769,92.398 196.96,92.539 C197.148,92.676 197.292,92.854 197.391,93.072 C197.489,93.29 197.538,93.561 197.538,93.884 L197.538,97.283 L197.538,97.283 Z M196.7,96.05 L196.7,94.655 C196.442,94.67 196.14,94.693 195.792,94.723 C195.443,94.752 195.168,94.796 194.965,94.853 C194.723,94.921 194.526,95.028 194.377,95.173 C194.227,95.318 194.152,95.518 194.152,95.772 C194.152,96.059 194.239,96.275 194.413,96.42 C194.586,96.565 194.851,96.638 195.206,96.638 C195.503,96.638 195.773,96.58 196.019,96.465 C196.264,96.35 196.49,96.211 196.7,96.05 L196.7,96.05 Z" id="Fill-25" sketch:type="MSShapeGroup"></path>
            <path d="M203.225,97.283 L202.381,97.283 L202.381,96.758 C202.14,96.968 201.887,97.131 201.623,97.248 C201.36,97.364 201.075,97.422 200.767,97.422 C200.169,97.422 199.694,97.192 199.343,96.731 C198.992,96.272 198.816,95.633 198.816,94.817 C198.816,94.393 198.877,94.014 198.998,93.682 C199.119,93.351 199.282,93.068 199.489,92.835 C199.692,92.607 199.929,92.434 200.2,92.315 C200.471,92.195 200.751,92.135 201.041,92.135 C201.304,92.135 201.537,92.163 201.74,92.218 C201.943,92.273 202.157,92.359 202.381,92.476 L202.381,90.306 L203.225,90.306 L203.225,97.283 L203.225,97.283 Z M202.381,96.05 L202.381,93.176 C202.154,93.074 201.951,93.004 201.771,92.965 C201.592,92.926 201.396,92.907 201.184,92.907 C200.712,92.907 200.344,93.071 200.081,93.4 C199.817,93.728 199.687,94.195 199.687,94.799 C199.687,95.394 199.788,95.846 199.991,96.155 C200.194,96.465 200.52,96.62 200.969,96.62 C201.208,96.62 201.45,96.566 201.695,96.46 C201.94,96.354 202.169,96.217 202.381,96.05 L202.381,96.05 Z" id="Fill-26" sketch:type="MSShapeGroup"></path>
            <path d="M207.485,97.238 C207.327,97.28 207.154,97.315 206.967,97.341 C206.78,97.368 206.613,97.382 206.467,97.382 C205.956,97.382 205.567,97.245 205.302,96.969 C205.035,96.694 204.902,96.253 204.902,95.647 L204.902,92.983 L204.333,92.983 L204.333,92.274 L204.902,92.274 L204.902,90.835 L205.745,90.835 L205.745,92.274 L207.485,92.274 L207.485,92.983 L205.745,92.983 L205.745,95.265 C205.745,95.528 205.751,95.734 205.764,95.882 C205.775,96.03 205.817,96.168 205.889,96.297 C205.954,96.416 206.045,96.504 206.16,96.559 C206.275,96.614 206.451,96.642 206.686,96.642 C206.824,96.642 206.968,96.622 207.117,96.581 C207.267,96.541 207.375,96.507 207.44,96.481 L207.485,96.481 L207.485,97.238" id="Fill-27" sketch:type="MSShapeGroup"></path>
            <path d="M217.073,91.396 L213.697,91.396 L213.697,93.279 L216.599,93.279 L216.599,94.068 L213.697,94.068 L213.697,97.283 L212.809,97.283 L212.809,90.606 L217.073,90.606 L217.073,91.396" id="Fill-28" sketch:type="MSShapeGroup"></path>
            <path d="M221.145,93.193 L221.101,93.193 C220.976,93.164 220.854,93.142 220.735,93.128 C220.617,93.115 220.477,93.108 220.316,93.108 C220.056,93.108 219.805,93.166 219.562,93.281 C219.32,93.396 219.087,93.545 218.863,93.727 L218.863,97.283 L218.02,97.283 L218.02,92.274 L218.863,92.274 L218.863,93.014 C219.198,92.745 219.493,92.555 219.749,92.442 C220.004,92.33 220.265,92.274 220.531,92.274 C220.678,92.274 220.784,92.278 220.85,92.286 C220.915,92.293 221.014,92.307 221.145,92.328 L221.145,93.193" id="Fill-29" sketch:type="MSShapeGroup"></path>
            <path d="M226.132,94.866 L222.441,94.866 C222.441,95.174 222.487,95.442 222.58,95.671 C222.673,95.9 222.8,96.087 222.961,96.234 C223.117,96.377 223.302,96.485 223.516,96.557 C223.728,96.628 223.964,96.665 224.222,96.665 C224.562,96.665 224.905,96.596 225.251,96.46 C225.596,96.324 225.842,96.19 225.988,96.059 L226.033,96.059 L226.033,96.978 C225.749,97.098 225.459,97.198 225.163,97.279 C224.867,97.359 224.557,97.4 224.23,97.4 C223.399,97.4 222.751,97.175 222.284,96.725 C221.818,96.275 221.585,95.636 221.585,94.808 C221.585,93.989 221.809,93.338 222.255,92.857 C222.702,92.376 223.29,92.135 224.019,92.135 C224.695,92.135 225.216,92.332 225.582,92.727 C225.948,93.122 226.132,93.682 226.132,94.409 L226.132,94.866 L226.132,94.866 Z M225.311,94.22 C225.309,93.778 225.197,93.435 224.977,93.193 C224.758,92.951 224.423,92.83 223.975,92.83 C223.523,92.83 223.164,92.963 222.896,93.229 C222.629,93.496 222.477,93.826 222.441,94.22 L225.311,94.22 L225.311,94.22 Z" id="Fill-30" sketch:type="MSShapeGroup"></path>
            <path d="M227.365,90.561 L228.315,90.561 L228.315,91.435 L227.365,91.435 L227.365,90.561 Z M227.419,92.274 L228.262,92.274 L228.262,97.283 L227.419,97.283 L227.419,92.274 Z" id="Fill-31" sketch:type="MSShapeGroup"></path>
            <path d="M234.338,94.741 C234.338,95.159 234.279,95.536 234.161,95.871 C234.043,96.206 233.884,96.486 233.684,96.714 C233.472,96.95 233.238,97.127 232.984,97.245 C232.729,97.363 232.45,97.422 232.145,97.422 C231.861,97.422 231.613,97.389 231.401,97.321 C231.188,97.254 230.979,97.164 230.773,97.05 L230.72,97.283 L229.931,97.283 L229.931,90.306 L230.773,90.306 L230.773,92.799 C231.01,92.604 231.261,92.445 231.526,92.321 C231.793,92.197 232.092,92.135 232.424,92.135 C233.016,92.135 233.482,92.362 233.825,92.817 C234.167,93.272 234.338,93.913 234.338,94.741 L234.338,94.741 Z M233.469,94.763 C233.469,94.165 233.37,93.711 233.172,93.402 C232.975,93.093 232.656,92.938 232.217,92.938 C231.972,92.938 231.724,92.991 231.473,93.097 C231.222,93.203 230.988,93.34 230.773,93.507 L230.773,96.377 C231.013,96.485 231.218,96.56 231.39,96.602 C231.562,96.644 231.757,96.665 231.975,96.665 C232.441,96.665 232.807,96.511 233.071,96.205 C233.336,95.898 233.469,95.418 233.469,94.763 L233.469,94.763 Z" id="Fill-32" sketch:type="MSShapeGroup"></path>
            <path d="M239.805,97.283 L238.961,97.283 L238.961,96.727 C238.677,96.951 238.405,97.123 238.146,97.243 C237.885,97.362 237.598,97.422 237.284,97.422 C236.758,97.422 236.349,97.262 236.056,96.94 C235.763,96.619 235.616,96.147 235.616,95.525 L235.616,92.274 L236.459,92.274 L236.459,95.126 C236.459,95.38 236.471,95.598 236.495,95.779 C236.519,95.959 236.569,96.114 236.648,96.243 C236.728,96.375 236.833,96.47 236.961,96.53 C237.09,96.59 237.276,96.62 237.521,96.62 C237.74,96.62 237.979,96.563 238.237,96.449 C238.495,96.335 238.737,96.19 238.961,96.014 L238.961,92.274 L239.805,92.274 L239.805,97.283" id="Fill-33" sketch:type="MSShapeGroup"></path>
            <path d="M244.589,93.193 L244.544,93.193 C244.419,93.164 244.297,93.142 244.179,93.128 C244.06,93.115 243.921,93.108 243.76,93.108 C243.499,93.108 243.248,93.166 243.006,93.281 C242.764,93.396 242.53,93.545 242.306,93.727 L242.306,97.283 L241.464,97.283 L241.464,92.274 L242.306,92.274 L242.306,93.014 C242.642,92.745 242.936,92.555 243.192,92.442 C243.447,92.33 243.708,92.274 243.975,92.274 C244.121,92.274 244.227,92.278 244.293,92.286 C244.358,92.293 244.457,92.307 244.589,92.328 L244.589,93.193" id="Fill-34" sketch:type="MSShapeGroup"></path>
            <path d="M249.446,96.714 C249.446,97.562 249.253,98.186 248.867,98.583 C248.482,98.981 247.889,99.18 247.087,99.18 C246.821,99.18 246.561,99.161 246.309,99.124 C246.056,99.086 245.808,99.034 245.562,98.965 L245.562,98.104 L245.607,98.104 C245.745,98.158 245.963,98.224 246.263,98.303 C246.561,98.382 246.86,98.422 247.159,98.422 C247.446,98.422 247.684,98.388 247.872,98.319 C248.06,98.25 248.207,98.155 248.312,98.032 C248.416,97.916 248.491,97.775 248.536,97.61 C248.581,97.446 248.602,97.262 248.602,97.059 L248.602,96.602 C248.349,96.805 248.106,96.956 247.874,97.057 C247.643,97.157 247.348,97.207 246.988,97.207 C246.391,97.207 245.916,96.991 245.565,96.559 C245.214,96.127 245.038,95.518 245.038,94.731 C245.038,94.301 245.098,93.93 245.22,93.617 C245.341,93.305 245.506,93.035 245.715,92.808 C245.909,92.596 246.145,92.431 246.424,92.313 C246.702,92.194 246.979,92.135 247.253,92.135 C247.543,92.135 247.786,92.165 247.982,92.223 C248.178,92.281 248.385,92.37 248.602,92.489 L248.657,92.274 L249.446,92.274 L249.446,96.714 L249.446,96.714 Z M248.602,95.907 L248.602,93.176 C248.379,93.074 248.17,93.002 247.977,92.958 C247.784,92.915 247.593,92.893 247.401,92.893 C246.937,92.893 246.573,93.048 246.307,93.359 C246.041,93.67 245.908,94.122 245.908,94.714 C245.908,95.276 246.007,95.702 246.204,95.992 C246.401,96.282 246.728,96.427 247.185,96.427 C247.431,96.427 247.677,96.379 247.924,96.286 C248.17,96.191 248.396,96.065 248.602,95.907 L248.602,95.907 Z" id="Fill-35" sketch:type="MSShapeGroup"></path>
            <path d="M64.768,86.263 L63.879,86.263 L63.879,80.509 L62.023,84.424 L61.494,84.424 L59.651,80.509 L59.651,86.263 L58.821,86.263 L58.821,79.585 L60.032,79.585 L61.812,83.303 L63.534,79.585 L64.768,79.585 L64.768,86.263" id="Fill-36" sketch:type="MSShapeGroup"></path>
            <path d="M70.646,86.263 L69.803,86.263 L69.803,85.706 C69.519,85.931 69.247,86.103 68.987,86.222 C68.727,86.342 68.44,86.402 68.126,86.402 C67.6,86.402 67.19,86.241 66.897,85.919 C66.604,85.598 66.458,85.127 66.458,84.505 L66.458,81.254 L67.301,81.254 L67.301,84.106 C67.301,84.36 67.312,84.577 67.337,84.758 C67.361,84.939 67.412,85.094 67.489,85.222 C67.57,85.354 67.674,85.45 67.803,85.509 C67.932,85.569 68.119,85.599 68.364,85.599 C68.582,85.599 68.82,85.543 69.079,85.429 C69.337,85.315 69.579,85.17 69.803,84.994 L69.803,81.254 L70.646,81.254 L70.646,86.263" id="Fill-37" sketch:type="MSShapeGroup"></path>
            <path d="M75.884,84.819 C75.884,85.276 75.695,85.651 75.317,85.944 C74.938,86.237 74.422,86.384 73.768,86.384 C73.397,86.384 73.057,86.34 72.748,86.252 C72.438,86.164 72.179,86.067 71.969,85.962 L71.969,85.016 L72.014,85.016 C72.28,85.216 72.576,85.375 72.902,85.494 C73.228,85.612 73.54,85.671 73.839,85.671 C74.21,85.671 74.5,85.611 74.709,85.491 C74.918,85.372 75.023,85.184 75.023,84.926 C75.023,84.729 74.966,84.58 74.852,84.478 C74.739,84.377 74.521,84.29 74.198,84.218 C74.079,84.191 73.922,84.16 73.729,84.123 C73.537,84.088 73.361,84.049 73.203,84.007 C72.763,83.891 72.451,83.719 72.268,83.494 C72.083,83.268 71.992,82.991 71.992,82.662 C71.992,82.456 72.034,82.261 72.12,82.079 C72.205,81.897 72.334,81.733 72.507,81.59 C72.675,81.45 72.888,81.338 73.146,81.256 C73.405,81.174 73.694,81.133 74.014,81.133 C74.313,81.133 74.616,81.169 74.922,81.243 C75.228,81.316 75.483,81.405 75.687,81.509 L75.687,82.411 L75.642,82.411 C75.427,82.252 75.165,82.119 74.857,82.009 C74.549,81.9 74.248,81.846 73.951,81.846 C73.644,81.846 73.383,81.905 73.171,82.023 C72.959,82.141 72.852,82.316 72.852,82.55 C72.852,82.756 72.917,82.912 73.045,83.016 C73.171,83.121 73.374,83.206 73.655,83.272 C73.811,83.308 73.985,83.343 74.178,83.379 C74.371,83.415 74.531,83.448 74.66,83.478 C75.052,83.568 75.353,83.722 75.566,83.94 C75.778,84.161 75.884,84.454 75.884,84.819" id="Fill-38" sketch:type="MSShapeGroup"></path>
            <path d="M77.045,79.54 L77.996,79.54 L77.996,80.415 L77.045,80.415 L77.045,79.54 Z M77.099,81.254 L77.942,81.254 L77.942,86.263 L77.099,86.263 L77.099,81.254 Z" id="Fill-39" sketch:type="MSShapeGroup"></path>
            <path d="M83.673,88.11 L82.83,88.11 L82.83,85.698 C82.57,85.922 82.312,86.088 82.054,86.198 C81.797,86.307 81.519,86.361 81.22,86.361 C80.625,86.361 80.151,86.132 79.796,85.673 C79.442,85.214 79.265,84.581 79.265,83.774 C79.265,83.343 79.327,82.963 79.451,82.633 C79.575,82.302 79.739,82.025 79.942,81.801 C80.14,81.582 80.371,81.414 80.637,81.294 C80.903,81.175 81.185,81.115 81.481,81.115 C81.749,81.115 81.988,81.145 82.195,81.205 C82.403,81.264 82.615,81.353 82.83,81.469 L82.884,81.254 L83.673,81.254 L83.673,88.11 L83.673,88.11 Z M82.83,84.989 L82.83,82.155 C82.597,82.05 82.391,81.977 82.211,81.935 C82.032,81.894 81.837,81.873 81.628,81.873 C81.141,81.873 80.77,82.038 80.516,82.368 C80.262,82.698 80.135,83.154 80.135,83.733 C80.135,84.319 80.237,84.77 80.442,85.085 C80.647,85.401 80.969,85.559 81.409,85.559 C81.654,85.559 81.899,85.506 82.144,85.399 C82.389,85.293 82.618,85.157 82.83,84.989 L82.83,84.989 Z" id="Fill-40" sketch:type="MSShapeGroup"></path>
            <path d="M89.485,86.263 L88.642,86.263 L88.642,85.706 C88.358,85.931 88.086,86.103 87.826,86.222 C87.566,86.342 87.279,86.402 86.965,86.402 C86.438,86.402 86.029,86.241 85.736,85.919 C85.443,85.598 85.297,85.127 85.297,84.505 L85.297,81.254 L86.14,81.254 L86.14,84.106 C86.14,84.36 86.151,84.577 86.176,84.758 C86.2,84.939 86.25,85.094 86.328,85.222 C86.409,85.354 86.513,85.45 86.642,85.509 C86.77,85.569 86.957,85.599 87.203,85.599 C87.421,85.599 87.659,85.543 87.917,85.429 C88.176,85.315 88.417,85.17 88.642,84.994 L88.642,81.254 L89.485,81.254 L89.485,86.263" id="Fill-41" sketch:type="MSShapeGroup"></path>
            <path d="M95.337,83.846 L91.646,83.846 C91.646,84.154 91.692,84.422 91.785,84.65 C91.878,84.879 92.005,85.067 92.166,85.213 C92.322,85.357 92.506,85.464 92.72,85.536 C92.934,85.608 93.169,85.644 93.427,85.644 C93.768,85.644 94.11,85.576 94.456,85.44 C94.801,85.304 95.047,85.17 95.193,85.039 L95.238,85.039 L95.238,85.957 C94.954,86.077 94.664,86.178 94.368,86.258 C94.072,86.339 93.761,86.379 93.435,86.379 C92.604,86.379 91.956,86.154 91.489,85.705 C91.023,85.254 90.79,84.616 90.79,83.788 C90.79,82.968 91.013,82.318 91.46,81.837 C91.907,81.355 92.495,81.115 93.225,81.115 C93.9,81.115 94.421,81.312 94.788,81.707 C95.154,82.101 95.337,82.662 95.337,83.388 L95.337,83.846 L95.337,83.846 Z M94.516,83.2 C94.513,82.757 94.402,82.415 94.182,82.173 C93.962,81.931 93.628,81.81 93.18,81.81 C92.728,81.81 92.369,81.943 92.102,82.209 C91.834,82.475 91.682,82.805 91.646,83.2 L94.516,83.2 L94.516,83.2 Z" id="Fill-42" sketch:type="MSShapeGroup"></path>
            <path d="M104.223,83.76 C104.223,84.577 104.013,85.221 103.595,85.693 C103.176,86.165 102.616,86.402 101.913,86.402 C101.205,86.402 100.642,86.165 100.225,85.693 C99.808,85.221 99.599,84.577 99.599,83.76 C99.599,82.944 99.808,82.299 100.225,81.826 C100.642,81.352 101.205,81.115 101.913,81.115 C102.616,81.115 103.176,81.352 103.595,81.826 C104.013,82.299 104.223,82.944 104.223,83.76 L104.223,83.76 Z M103.352,83.76 C103.352,83.112 103.226,82.63 102.972,82.315 C102.717,81.999 102.365,81.841 101.913,81.841 C101.456,81.841 101.101,81.999 100.848,82.315 C100.596,82.63 100.469,83.112 100.469,83.76 C100.469,84.388 100.596,84.864 100.851,85.188 C101.104,85.513 101.459,85.675 101.913,85.675 C102.362,85.675 102.714,85.515 102.969,85.193 C103.225,84.872 103.352,84.394 103.352,83.76 L103.352,83.76 Z" id="Fill-43" sketch:type="MSShapeGroup"></path>
            <path d="M108.223,80.101 L108.178,80.101 C108.085,80.074 107.964,80.047 107.815,80.019 C107.665,79.99 107.534,79.976 107.42,79.976 C107.059,79.976 106.796,80.056 106.633,80.216 C106.47,80.375 106.389,80.665 106.389,81.083 L106.389,81.254 L107.909,81.254 L107.909,81.962 L106.416,81.962 L106.416,86.263 L105.573,86.263 L105.573,81.962 L105.003,81.962 L105.003,81.254 L105.573,81.254 L105.573,81.088 C105.573,80.493 105.721,80.036 106.017,79.718 C106.312,79.399 106.74,79.24 107.299,79.24 C107.487,79.24 107.657,79.249 107.808,79.267 C107.959,79.285 108.097,79.306 108.223,79.33 L108.223,80.101" id="Fill-44" sketch:type="MSShapeGroup"></path>
            <path d="M111.451,80.101 L111.407,80.101 C111.314,80.074 111.193,80.047 111.043,80.019 C110.894,79.99 110.762,79.976 110.649,79.976 C110.287,79.976 110.024,80.056 109.862,80.216 C109.699,80.375 109.617,80.665 109.617,81.083 L109.617,81.254 L111.138,81.254 L111.138,81.962 L109.644,81.962 L109.644,86.263 L108.801,86.263 L108.801,81.962 L108.232,81.962 L108.232,81.254 L108.801,81.254 L108.801,81.088 C108.801,80.493 108.949,80.036 109.245,79.718 C109.541,79.399 109.969,79.24 110.528,79.24 C110.716,79.24 110.886,79.249 111.037,79.267 C111.187,79.285 111.326,79.306 111.451,79.33 L111.451,80.101" id="Fill-45" sketch:type="MSShapeGroup"></path>
            <path d="M111.94,79.54 L112.891,79.54 L112.891,80.415 L111.94,80.415 L111.94,79.54 Z M111.994,81.254 L112.837,81.254 L112.837,86.263 L111.994,86.263 L111.994,81.254 Z" id="Fill-46" sketch:type="MSShapeGroup"></path>
            <path d="M118.209,85.949 C117.928,86.083 117.662,86.188 117.409,86.263 C117.156,86.337 116.888,86.375 116.604,86.375 C116.242,86.375 115.911,86.322 115.608,86.216 C115.307,86.109 115.048,85.949 114.833,85.733 C114.614,85.518 114.445,85.246 114.326,84.917 C114.206,84.588 114.146,84.205 114.146,83.765 C114.146,82.946 114.372,82.303 114.821,81.837 C115.271,81.37 115.866,81.137 116.604,81.137 C116.891,81.137 117.173,81.178 117.449,81.258 C117.726,81.339 117.979,81.437 118.209,81.554 L118.209,82.491 L118.165,82.491 C117.907,82.291 117.642,82.137 117.369,82.029 C117.095,81.922 116.828,81.868 116.568,81.868 C116.09,81.868 115.712,82.029 115.436,82.35 C115.159,82.671 115.021,83.143 115.021,83.765 C115.021,84.369 115.156,84.833 115.427,85.157 C115.697,85.482 116.078,85.644 116.568,85.644 C116.739,85.644 116.912,85.622 117.088,85.577 C117.265,85.532 117.423,85.474 117.563,85.402 C117.686,85.339 117.801,85.272 117.909,85.202 C118.017,85.132 118.102,85.071 118.165,85.021 L118.209,85.021 L118.209,85.949" id="Fill-47" sketch:type="MSShapeGroup"></path>
            <path d="M119.245,79.54 L120.196,79.54 L120.196,80.415 L119.245,80.415 L119.245,79.54 Z M119.299,81.254 L120.142,81.254 L120.142,86.263 L119.299,86.263 L119.299,81.254 Z" id="Fill-48" sketch:type="MSShapeGroup"></path>
            <path d="M126.003,83.846 L122.312,83.846 C122.312,84.154 122.358,84.422 122.451,84.65 C122.544,84.879 122.671,85.067 122.832,85.213 C122.988,85.357 123.172,85.464 123.386,85.536 C123.6,85.608 123.835,85.644 124.093,85.644 C124.434,85.644 124.776,85.576 125.122,85.44 C125.467,85.304 125.713,85.17 125.859,85.039 L125.904,85.039 L125.904,85.957 C125.62,86.077 125.33,86.178 125.034,86.258 C124.738,86.339 124.427,86.379 124.102,86.379 C123.27,86.379 122.622,86.154 122.155,85.705 C121.689,85.254 121.456,84.616 121.456,83.788 C121.456,82.968 121.679,82.318 122.126,81.837 C122.573,81.355 123.161,81.115 123.891,81.115 C124.566,81.115 125.087,81.312 125.454,81.707 C125.82,82.101 126.003,82.662 126.003,83.388 L126.003,83.846 L126.003,83.846 Z M125.182,83.2 C125.179,82.757 125.068,82.415 124.848,82.173 C124.628,81.931 124.294,81.81 123.846,81.81 C123.394,81.81 123.035,81.943 122.768,82.209 C122.5,82.475 122.348,82.805 122.312,83.2 L125.182,83.2 L125.182,83.2 Z" id="Fill-49" sketch:type="MSShapeGroup"></path>
            <path d="M127.29,79.285 L128.133,79.285 L128.133,86.263 L127.29,86.263 L127.29,79.285 Z" id="Fill-50" sketch:type="MSShapeGroup"></path>
            <path d="M129.81,79.285 L130.653,79.285 L130.653,86.263 L129.81,86.263 L129.81,79.285 Z" id="Fill-51" sketch:type="MSShapeGroup"></path>
            <path d="M136.514,83.846 L132.824,83.846 C132.824,84.154 132.87,84.422 132.962,84.65 C133.055,84.879 133.182,85.067 133.344,85.213 C133.499,85.357 133.684,85.464 133.897,85.536 C134.111,85.608 134.347,85.644 134.604,85.644 C134.945,85.644 135.288,85.576 135.633,85.44 C135.978,85.304 136.224,85.17 136.371,85.039 L136.416,85.039 L136.416,85.957 C136.131,86.077 135.841,86.178 135.545,86.258 C135.249,86.339 134.938,86.379 134.613,86.379 C133.782,86.379 133.133,86.154 132.666,85.705 C132.2,85.254 131.967,84.616 131.967,83.788 C131.967,82.968 132.19,82.318 132.637,81.837 C133.084,81.355 133.672,81.115 134.402,81.115 C135.078,81.115 135.599,81.312 135.965,81.707 C136.331,82.101 136.514,82.662 136.514,83.388 L136.514,83.846 L136.514,83.846 Z M135.693,83.2 C135.69,82.757 135.579,82.415 135.359,82.173 C135.14,81.931 134.806,81.81 134.357,81.81 C133.906,81.81 133.546,81.943 133.279,82.209 C133.011,82.475 132.859,82.805 132.824,83.2 L135.693,83.2 L135.693,83.2 Z" id="Fill-52" sketch:type="MSShapeGroup"></path>
            <path d="M145.598,86.263 L141.198,86.263 L141.198,79.585 L145.598,79.585 L145.598,80.375 L142.086,80.375 L142.086,82.205 L145.598,82.205 L145.598,82.994 L142.086,82.994 L142.086,85.474 L145.598,85.474 L145.598,86.263" id="Fill-53" sketch:type="MSShapeGroup"></path>
            <path d="M149.539,86.218 C149.381,86.26 149.208,86.294 149.02,86.321 C148.834,86.348 148.667,86.361 148.52,86.361 C148.01,86.361 147.621,86.224 147.355,85.949 C147.089,85.674 146.956,85.233 146.956,84.626 L146.956,81.962 L146.387,81.962 L146.387,81.254 L146.956,81.254 L146.956,79.815 L147.799,79.815 L147.799,81.254 L149.539,81.254 L149.539,81.962 L147.799,81.962 L147.799,84.245 C147.799,84.508 147.805,84.713 147.817,84.861 C147.829,85.009 147.871,85.147 147.942,85.276 C148.008,85.396 148.099,85.483 148.214,85.539 C148.329,85.594 148.505,85.622 148.74,85.622 C148.878,85.622 149.021,85.601 149.171,85.561 C149.32,85.52 149.429,85.487 149.494,85.46 L149.539,85.46 L149.539,86.218" id="Fill-54" sketch:type="MSShapeGroup"></path>
            <path d="M154.449,86.263 L153.611,86.263 L153.611,85.729 C153.536,85.78 153.435,85.851 153.309,85.942 C153.181,86.033 153.058,86.106 152.938,86.16 C152.798,86.228 152.637,86.286 152.454,86.332 C152.271,86.378 152.058,86.402 151.812,86.402 C151.361,86.402 150.978,86.252 150.665,85.953 C150.351,85.654 150.194,85.273 150.194,84.81 C150.194,84.43 150.275,84.123 150.438,83.888 C150.602,83.654 150.834,83.469 151.136,83.335 C151.44,83.2 151.807,83.109 152.234,83.061 C152.662,83.013 153.121,82.977 153.611,82.953 L153.611,82.823 C153.611,82.632 153.577,82.474 153.51,82.348 C153.442,82.222 153.347,82.123 153.221,82.052 C153.102,81.983 152.958,81.937 152.79,81.913 C152.623,81.889 152.448,81.877 152.266,81.877 C152.044,81.877 151.798,81.906 151.525,81.964 C151.254,82.023 150.973,82.107 150.683,82.218 L150.638,82.218 L150.638,81.361 C150.802,81.316 151.04,81.267 151.351,81.213 C151.662,81.16 151.968,81.133 152.27,81.133 C152.623,81.133 152.93,81.162 153.191,81.22 C153.453,81.278 153.68,81.378 153.871,81.519 C154.06,81.656 154.203,81.834 154.302,82.052 C154.4,82.27 154.449,82.54 154.449,82.864 L154.449,86.263 L154.449,86.263 Z M153.611,85.029 L153.611,83.635 C153.354,83.65 153.051,83.672 152.703,83.702 C152.354,83.732 152.079,83.775 151.876,83.832 C151.634,83.901 151.437,84.008 151.288,84.153 C151.139,84.298 151.063,84.498 151.063,84.752 C151.063,85.039 151.15,85.254 151.324,85.399 C151.497,85.544 151.762,85.617 152.117,85.617 C152.414,85.617 152.685,85.56 152.93,85.444 C153.175,85.329 153.401,85.191 153.611,85.029 L153.611,85.029 Z" id="Fill-55" sketch:type="MSShapeGroup"></path>
            <path d="M158.674,86.218 C158.516,86.26 158.343,86.294 158.155,86.321 C157.969,86.348 157.802,86.361 157.655,86.361 C157.144,86.361 156.756,86.224 156.49,85.949 C156.224,85.674 156.091,85.233 156.091,84.626 L156.091,81.962 L155.521,81.962 L155.521,81.254 L156.091,81.254 L156.091,79.815 L156.934,79.815 L156.934,81.254 L158.674,81.254 L158.674,81.962 L156.934,81.962 L156.934,84.245 C156.934,84.508 156.939,84.713 156.952,84.861 C156.964,85.009 157.006,85.147 157.077,85.276 C157.143,85.396 157.233,85.483 157.349,85.539 C157.464,85.594 157.64,85.622 157.875,85.622 C158.013,85.622 158.156,85.601 158.306,85.561 C158.455,85.52 158.563,85.487 158.629,85.46 L158.674,85.46 L158.674,86.218" id="Fill-56" sketch:type="MSShapeGroup"></path>
            <path d="M167.224,83.846 L163.533,83.846 C163.533,84.154 163.579,84.422 163.672,84.65 C163.765,84.879 163.892,85.067 164.053,85.213 C164.209,85.357 164.394,85.464 164.607,85.536 C164.82,85.608 165.056,85.644 165.313,85.644 C165.654,85.644 165.997,85.576 166.343,85.44 C166.687,85.304 166.934,85.17 167.08,85.039 L167.125,85.039 L167.125,85.957 C166.841,86.077 166.551,86.178 166.255,86.258 C165.959,86.339 165.648,86.379 165.322,86.379 C164.491,86.379 163.843,86.154 163.376,85.705 C162.91,85.254 162.677,84.616 162.677,83.788 C162.677,82.968 162.9,82.318 163.347,81.837 C163.794,81.355 164.382,81.115 165.111,81.115 C165.787,81.115 166.308,81.312 166.674,81.707 C167.04,82.101 167.224,82.662 167.224,83.388 L167.224,83.846 L167.224,83.846 Z M166.403,83.2 C166.4,82.757 166.289,82.415 166.069,82.173 C165.85,81.931 165.515,81.81 165.066,81.81 C164.615,81.81 164.256,81.943 163.988,82.209 C163.721,82.475 163.569,82.805 163.533,83.2 L166.403,83.2 L166.403,83.2 Z" id="Fill-57" sketch:type="MSShapeGroup"></path>
            <path d="M171.102,86.218 C170.944,86.26 170.771,86.294 170.584,86.321 C170.397,86.348 170.23,86.361 170.084,86.361 C169.573,86.361 169.185,86.224 168.919,85.949 C168.652,85.674 168.519,85.233 168.519,84.626 L168.519,81.962 L167.95,81.962 L167.95,81.254 L168.519,81.254 L168.519,79.815 L169.362,79.815 L169.362,81.254 L171.102,81.254 L171.102,81.962 L169.362,81.962 L169.362,84.245 C169.362,84.508 169.368,84.713 169.381,84.861 C169.393,85.009 169.435,85.147 169.506,85.276 C169.571,85.396 169.662,85.483 169.777,85.539 C169.893,85.594 170.068,85.622 170.304,85.622 C170.441,85.622 170.585,85.601 170.734,85.561 C170.884,85.52 170.992,85.487 171.058,85.46 L171.102,85.46 L171.102,86.218" id="Fill-58" sketch:type="MSShapeGroup"></path>
            <path d="M180.79,79.585 L178.359,86.263 L177.176,86.263 L174.745,79.585 L175.696,79.585 L177.79,85.46 L179.885,79.585 L180.79,79.585" id="Fill-59" sketch:type="MSShapeGroup"></path>
            <path d="M181.692,79.54 L182.642,79.54 L182.642,80.415 L181.692,80.415 L181.692,79.54 Z M181.746,81.254 L182.589,81.254 L182.589,86.263 L181.746,86.263 L181.746,81.254 Z" id="Fill-60" sketch:type="MSShapeGroup"></path>
            <path d="M184.267,79.285 L185.11,79.285 L185.11,86.263 L184.267,86.263 L184.267,79.285 Z" id="Fill-61" sketch:type="MSShapeGroup"></path>
            <path d="M186.786,79.285 L187.629,79.285 L187.629,86.263 L186.786,86.263 L186.786,79.285 Z" id="Fill-62" sketch:type="MSShapeGroup"></path>
            <path d="M193.49,83.846 L189.8,83.846 C189.8,84.154 189.846,84.422 189.938,84.65 C190.031,84.879 190.158,85.067 190.319,85.213 C190.476,85.357 190.66,85.464 190.874,85.536 C191.087,85.608 191.322,85.644 191.58,85.644 C191.921,85.644 192.264,85.576 192.609,85.44 C192.954,85.304 193.2,85.17 193.347,85.039 L193.392,85.039 L193.392,85.957 C193.107,86.077 192.817,86.178 192.521,86.258 C192.226,86.339 191.915,86.379 191.589,86.379 C190.758,86.379 190.109,86.154 189.643,85.705 C189.177,85.254 188.943,84.616 188.943,83.788 C188.943,82.968 189.167,82.318 189.613,81.837 C190.06,81.355 190.648,81.115 191.378,81.115 C192.054,81.115 192.574,81.312 192.94,81.707 C193.307,82.101 193.49,82.662 193.49,83.388 L193.49,83.846 L193.49,83.846 Z M192.67,83.2 C192.667,82.757 192.556,82.415 192.336,82.173 C192.116,81.931 191.781,81.81 191.333,81.81 C190.882,81.81 190.523,81.943 190.255,82.209 C189.987,82.475 189.836,82.805 189.8,83.2 L192.67,83.2 L192.67,83.2 Z" id="Fill-63" sketch:type="MSShapeGroup"></path>
            <path d="M202.17,86.263 L201.326,86.263 L201.326,85.738 C201.085,85.947 200.832,86.11 200.568,86.227 C200.306,86.343 200.02,86.402 199.712,86.402 C199.114,86.402 198.64,86.171 198.288,85.711 C197.937,85.251 197.762,84.612 197.762,83.796 C197.762,83.372 197.822,82.994 197.943,82.662 C198.064,82.33 198.227,82.047 198.435,81.815 C198.638,81.587 198.874,81.414 199.145,81.294 C199.416,81.175 199.696,81.115 199.986,81.115 C200.249,81.115 200.482,81.143 200.685,81.198 C200.889,81.253 201.102,81.339 201.326,81.456 L201.326,79.285 L202.17,79.285 L202.17,86.263 L202.17,86.263 Z M201.326,85.029 L201.326,82.155 C201.1,82.054 200.896,81.983 200.717,81.944 C200.537,81.905 200.342,81.886 200.129,81.886 C199.657,81.886 199.289,82.05 199.026,82.379 C198.763,82.708 198.632,83.174 198.632,83.778 C198.632,84.373 198.733,84.826 198.937,85.135 C199.14,85.444 199.466,85.599 199.914,85.599 C200.153,85.599 200.395,85.546 200.641,85.44 C200.886,85.334 201.114,85.197 201.326,85.029 L201.326,85.029 Z" id="Fill-64" sketch:type="MSShapeGroup"></path>
            <path d="M208.022,83.846 L204.332,83.846 C204.332,84.154 204.378,84.422 204.471,84.65 C204.563,84.879 204.69,85.067 204.852,85.213 C205.008,85.357 205.192,85.464 205.406,85.536 C205.619,85.608 205.854,85.644 206.112,85.644 C206.453,85.644 206.796,85.576 207.142,85.44 C207.486,85.304 207.732,85.17 207.879,85.039 L207.924,85.039 L207.924,85.957 C207.64,86.077 207.35,86.178 207.054,86.258 C206.758,86.339 206.447,86.379 206.121,86.379 C205.29,86.379 204.642,86.154 204.175,85.705 C203.709,85.254 203.476,84.616 203.476,83.788 C203.476,82.968 203.699,82.318 204.145,81.837 C204.593,81.355 205.181,81.115 205.91,81.115 C206.586,81.115 207.106,81.312 207.473,81.707 C207.839,82.101 208.022,82.662 208.022,83.388 L208.022,83.846 L208.022,83.846 Z M207.202,83.2 C207.199,82.757 207.088,82.415 206.868,82.173 C206.648,81.931 206.313,81.81 205.865,81.81 C205.414,81.81 205.055,81.943 204.787,82.209 C204.519,82.475 204.368,82.805 204.332,83.2 L207.202,83.2 L207.202,83.2 Z" id="Fill-65" sketch:type="MSShapeGroup"></path>
            <path d="M216.971,80.375 L213.595,80.375 L213.595,82.258 L216.496,82.258 L216.496,83.047 L213.595,83.047 L213.595,86.263 L212.706,86.263 L212.706,79.585 L216.971,79.585 L216.971,80.375" id="Fill-66" sketch:type="MSShapeGroup"></path>
            <path d="M221.042,82.173 L220.997,82.173 C220.872,82.143 220.75,82.122 220.632,82.108 C220.514,82.095 220.374,82.088 220.213,82.088 C219.952,82.088 219.701,82.145 219.459,82.26 C219.217,82.375 218.983,82.524 218.76,82.706 L218.76,86.263 L217.917,86.263 L217.917,81.254 L218.76,81.254 L218.76,81.994 C219.095,81.725 219.39,81.534 219.645,81.422 C219.9,81.31 220.161,81.254 220.428,81.254 C220.574,81.254 220.681,81.257 220.746,81.265 C220.811,81.273 220.91,81.287 221.042,81.308 L221.042,82.173" id="Fill-67" sketch:type="MSShapeGroup"></path>
            <path d="M221.792,79.54 L222.742,79.54 L222.742,80.415 L221.792,80.415 L221.792,79.54 Z M221.846,81.254 L222.689,81.254 L222.689,86.263 L221.846,86.263 L221.846,81.254 Z" id="Fill-68" sketch:type="MSShapeGroup"></path>
            <path d="M228.764,83.72 C228.764,84.139 228.705,84.515 228.587,84.85 C228.469,85.185 228.31,85.466 228.109,85.693 C227.897,85.929 227.664,86.106 227.41,86.225 C227.155,86.343 226.876,86.402 226.571,86.402 C226.287,86.402 226.039,86.368 225.827,86.301 C225.614,86.233 225.405,86.143 225.199,86.029 L225.145,86.263 L224.356,86.263 L224.356,79.285 L225.199,79.285 L225.199,81.778 C225.435,81.584 225.686,81.425 225.952,81.301 C226.219,81.177 226.518,81.115 226.85,81.115 C227.441,81.115 227.908,81.342 228.251,81.796 C228.593,82.251 228.764,82.892 228.764,83.72 L228.764,83.72 Z M227.894,83.743 C227.894,83.144 227.796,82.691 227.598,82.381 C227.4,82.072 227.082,81.917 226.643,81.917 C226.397,81.917 226.149,81.971 225.898,82.077 C225.647,82.183 225.414,82.319 225.199,82.487 L225.199,85.357 C225.438,85.464 225.644,85.539 225.815,85.581 C225.987,85.623 226.183,85.644 226.4,85.644 C226.867,85.644 227.232,85.491 227.497,85.184 C227.762,84.878 227.894,84.397 227.894,83.743 L227.894,83.743 Z" id="Fill-69" sketch:type="MSShapeGroup"></path>
            <path d="M234.348,83.76 C234.348,84.577 234.139,85.221 233.72,85.693 C233.302,86.165 232.741,86.402 232.038,86.402 C231.33,86.402 230.767,86.165 230.35,85.693 C229.933,85.221 229.725,84.577 229.725,83.76 C229.725,82.944 229.933,82.299 230.35,81.826 C230.767,81.352 231.33,81.115 232.038,81.115 C232.741,81.115 233.302,81.352 233.72,81.826 C234.139,82.299 234.348,82.944 234.348,83.76 L234.348,83.76 Z M233.477,83.76 C233.477,83.112 233.351,82.63 233.097,82.315 C232.843,81.999 232.489,81.841 232.038,81.841 C231.581,81.841 231.226,81.999 230.974,82.315 C230.721,82.63 230.595,83.112 230.595,83.76 C230.595,84.388 230.722,84.864 230.976,85.188 C231.229,85.513 231.584,85.675 232.038,85.675 C232.486,85.675 232.839,85.515 233.095,85.193 C233.35,84.872 233.477,84.394 233.477,83.76 L233.477,83.76 Z" id="Fill-70" sketch:type="MSShapeGroup"></path>
            <path d="M239.805,86.263 L238.961,86.263 L238.961,85.706 C238.677,85.931 238.405,86.103 238.146,86.222 C237.885,86.342 237.598,86.402 237.284,86.402 C236.758,86.402 236.349,86.241 236.056,85.919 C235.763,85.598 235.616,85.127 235.616,84.505 L235.616,81.254 L236.459,81.254 L236.459,84.106 C236.459,84.36 236.471,84.577 236.495,84.758 C236.519,84.939 236.569,85.094 236.648,85.222 C236.728,85.354 236.833,85.45 236.961,85.509 C237.09,85.569 237.276,85.599 237.521,85.599 C237.74,85.599 237.979,85.543 238.237,85.429 C238.495,85.315 238.737,85.17 238.961,84.994 L238.961,81.254 L239.805,81.254 L239.805,86.263" id="Fill-71" sketch:type="MSShapeGroup"></path>
            <path d="M244.59,82.173 L244.545,82.173 C244.42,82.143 244.298,82.122 244.18,82.108 C244.061,82.095 243.922,82.088 243.761,82.088 C243.5,82.088 243.249,82.145 243.007,82.26 C242.765,82.375 242.531,82.524 242.308,82.706 L242.308,86.263 L241.465,86.263 L241.465,81.254 L242.308,81.254 L242.308,81.994 C242.643,81.725 242.937,81.534 243.193,81.422 C243.448,81.31 243.709,81.254 243.976,81.254 C244.122,81.254 244.228,81.257 244.294,81.265 C244.359,81.273 244.458,81.287 244.59,81.308 L244.59,82.173" id="Fill-72" sketch:type="MSShapeGroup"></path>
            <path d="M249.446,85.693 C249.446,86.542 249.253,87.165 248.867,87.563 C248.482,87.961 247.889,88.16 247.087,88.16 C246.821,88.16 246.561,88.141 246.309,88.103 C246.056,88.066 245.808,88.013 245.562,87.944 L245.562,87.083 L245.607,87.083 C245.745,87.137 245.963,87.204 246.263,87.283 C246.561,87.362 246.86,87.402 247.159,87.402 C247.446,87.402 247.684,87.367 247.872,87.298 C248.06,87.23 248.207,87.134 248.312,87.012 C248.416,86.895 248.491,86.754 248.536,86.59 C248.581,86.426 248.602,86.242 248.602,86.039 L248.602,85.581 C248.349,85.784 248.106,85.936 247.874,86.036 C247.643,86.136 247.348,86.186 246.988,86.186 C246.391,86.186 245.916,85.971 245.565,85.539 C245.214,85.106 245.038,84.498 245.038,83.711 C245.038,83.281 245.098,82.909 245.22,82.597 C245.341,82.285 245.506,82.015 245.715,81.788 C245.909,81.575 246.145,81.41 246.424,81.292 C246.702,81.174 246.979,81.115 247.253,81.115 C247.543,81.115 247.786,81.144 247.982,81.202 C248.178,81.26 248.385,81.35 248.602,81.469 L248.657,81.254 L249.446,81.254 L249.446,85.693 L249.446,85.693 Z M248.602,84.886 L248.602,82.155 C248.379,82.054 248.17,81.981 247.977,81.937 C247.784,81.895 247.593,81.873 247.401,81.873 C246.937,81.873 246.573,82.028 246.307,82.339 C246.041,82.65 245.908,83.101 245.908,83.693 C245.908,84.255 246.007,84.681 246.204,84.971 C246.401,85.261 246.728,85.406 247.185,85.406 C247.431,85.406 247.677,85.359 247.924,85.265 C248.17,85.171 248.396,85.044 248.602,84.886 L248.602,84.886 Z" id="Fill-73" sketch:type="MSShapeGroup"></path>
            <path d="M52.407,35.104 L39.258,35.104 L38.949,35.123 C34.291,35.658 25.483,39.944 25.483,52.329 L25.483,70.229 L30.884,70.229 L30.884,55.358 L51.25,55.358 L51.25,70.229 L56.64,70.229 L56.64,39.337 C56.64,36.999 54.745,35.104 52.407,35.104 L52.407,35.104 Z M51.25,49.958 L31.051,49.958 C32.098,42.062 38.247,40.692 39.443,40.505 L51.25,40.505 L51.25,49.958 L51.25,49.958 Z M87.973,35.086 L84.273,35.086 C83.807,35.086 83.424,35.469 83.424,35.936 L83.424,60.746 L65.576,37.632 L63.623,35.102 L62.773,35.099 L62.771,35.099 L59.648,35.089 C59.182,35.087 58.799,35.469 58.799,35.936 L58.799,69.38 C58.799,69.847 59.182,70.229 59.648,70.229 L63.348,70.229 C63.816,70.229 64.199,69.847 64.199,69.38 L64.199,44.582 L82.111,67.782 L82.166,67.777 C82.191,67.846 82.215,67.915 82.264,67.977 L83.481,69.554 C83.766,69.924 84.383,70.227 84.85,70.227 L87.973,70.227 C88.441,70.227 88.824,69.844 88.824,69.376 L88.824,35.936 C88.824,35.469 88.441,35.086 87.973,35.086 L87.973,35.086 Z M249.223,18.275 C249.722,16.007 249.712,13.784 249.449,11.852 C248.965,8.297 246.351,5.133 247.457,0.582 L239.87,0.582 L239.87,29.18 C241.018,29.625 242.108,30.18 243.123,30.847 C244.955,26.565 248.139,23.221 249.223,18.275 L249.223,18.275 Z M6.217,57.237 L6.217,30.907 L0.217,30.907 L0.217,57.237 C0.217,64.405 6.049,70.237 13.217,70.237 L23.333,70.237 L23.333,64.237 L13.217,64.237 C9.357,64.237 6.217,61.097 6.217,57.237 L6.217,57.237 Z M250.314,40.814 C250.398,40.661 250.493,40.518 250.576,40.364 C251.538,38.591 252.428,36.306 253.731,34.842 C256.277,31.981 259.673,30.477 263.31,28.869 C274.032,24.13 279.487,14.475 282.019,1.032 C282.062,0.922 282.107,0.647 282.118,0.582 L264.478,0.582 C264.947,0.948 264.929,3.024 265.001,3.737 C265.322,6.868 265.299,10.968 264.664,13.091 C263.331,17.545 259.394,22.668 256.099,25.037 C255.045,25.793 253.817,26.255 252.942,26.84 C252.054,27.435 251.294,28.15 250.464,28.981 C248.908,30.537 247.865,32.363 247.069,34.422 C248.568,36.274 249.68,38.445 250.314,40.814 L250.314,40.814 Z M242.134,60.497 C242.1,60.464 242.063,60.433 242.029,60.399 C239.776,58.245 237.346,56.344 235.638,55.151 C237.192,54.843 238.623,54.155 239.87,53.157 C240.134,52.946 240.4,52.739 240.645,52.499 C240.721,52.426 240.785,52.345 240.857,52.27 C242.673,50.381 243.678,47.911 243.678,45.267 C243.678,43.181 243.044,41.24 241.962,39.624 C241.385,38.762 240.677,37.995 239.87,37.346 C238.127,35.943 235.916,35.098 233.509,35.098 L218.215,35.098 L218.215,70.229 L223.615,70.229 L223.615,55.585 C225.416,56.06 229.024,57.193 232.144,59.3 C233.139,59.972 234.61,61.072 236.151,62.378 C236.896,63.009 237.657,63.685 238.391,64.39 C240.477,66.396 242.37,68.675 243.356,70.016 C243.411,70.091 243.459,70.159 243.508,70.229 L249.521,70.229 C249.418,69.835 249.016,68.596 247.706,66.816 C246.594,65.304 244.467,62.741 242.134,60.497 L242.134,60.497 Z M223.615,49.965 L223.615,40.499 L233.509,40.499 C236.139,40.499 238.277,42.638 238.277,45.267 C238.277,46.552 237.776,47.75 236.867,48.642 C235.979,49.512 234.846,50.001 233.505,49.951 L223.615,49.965 L223.615,49.965 Z M292.748,46.909 C287.109,46.959 282.891,44.734 277.849,45.435 C274.815,45.857 272.477,47.607 269.96,49.042 C263.841,52.527 256.547,52.61 249.705,52.989 C249.504,53.001 249.3,52.992 249.097,52.987 C248.684,53.816 248.209,54.606 247.673,55.353 L293.288,55.353 L293.288,46.897 C293.108,46.874 292.925,46.959 292.748,46.909 L292.748,46.909 Z M106.202,35.098 L91.83,35.098 C91.363,35.098 90.981,35.48 90.981,35.948 L90.981,37.466 L90.981,37.469 L90.975,37.471 L90.975,68.711 L90.981,68.712 L90.981,69.383 C90.981,69.851 91.363,70.233 91.83,70.233 L106.011,70.233 L106.205,70.204 C110.834,69.525 119.588,64.983 119.588,52.658 C119.588,40.33 110.832,35.771 106.202,35.098 L106.202,35.098 Z M105.577,64.833 L96.375,64.833 L96.375,40.498 L105.579,40.498 C107.035,40.781 114.187,42.68 114.187,52.658 C114.187,62.636 107.037,64.548 105.577,64.833 L105.577,64.833 Z M293.176,12.302 C293.003,13.278 292.226,14.602 291.711,15.683 C290.225,18.805 288.563,22.261 286.414,24.699 C284.703,26.639 282.386,28.292 280.103,29.658 C277.716,31.086 274.812,32.435 272.214,32.926 C268.546,33.618 265.629,34.238 262.973,35.63 C260.517,36.918 258.185,38.58 256.324,40.815 C255.229,42.129 254.416,43.559 253.394,44.759 C252.598,45.693 251.742,46.36 250.839,46.905 C250.733,48.043 250.516,49.146 250.201,50.208 C254.828,49.026 258.323,48.057 262.297,45.21 C264.263,43.8 266.04,42.131 268.044,40.927 C270.911,39.205 274.78,38.153 278.524,37.885 C281.798,37.65 284.913,37.585 287.991,36.532 C289.744,35.932 291.577,34.872 293.062,34.165 C293.062,34.165 293.246,34.07 293.288,34.04 L293.288,11.773 C293.274,11.792 293.204,12.143 293.176,12.302 L293.176,12.302 Z M210.664,49.958 L194.439,49.958 L194.439,35.086 L189.039,35.086 L189.039,70.229 L194.439,70.229 L194.439,55.358 L210.664,55.358 L210.664,70.229 L216.064,70.229 L216.064,35.086 L210.664,35.086 L210.664,49.958 L210.664,49.958 Z M160.717,37.227 L160.862,35.931 C160.915,35.466 160.575,35.086 160.107,35.086 L156.295,35.086 C155.827,35.086 155.415,35.467 155.379,35.934 L155.267,37.368 C154.19,46.308 148.22,54.767 144.011,59.614 L144.011,35.96 L144.024,35.086 L138.596,35.086 L138.42,37.354 C137.348,46.299 131.373,54.764 127.161,59.614 L127.161,35.936 C127.161,35.469 126.778,35.086 126.31,35.086 L122.611,35.086 C122.144,35.086 121.761,35.469 121.761,35.936 L121.761,66.285 C121.761,66.285 121.711,69.852 122.742,70.181 C123.738,70.498 125.68,68.789 126.24,68.315 C126.685,67.926 133.549,61.743 138.609,52.815 L138.609,66.285 C138.609,66.285 138.56,69.852 139.592,70.181 C140.588,70.498 142.529,68.789 143.09,68.315 C143.764,67.725 159.18,53.839 160.722,37.24 C160.722,37.235 160.717,37.231 160.717,37.227 L160.717,37.227 Z M173.586,35.123 C168.929,35.658 160.121,39.944 160.121,52.329 L160.121,53.009 C160.121,65.394 168.929,69.68 173.586,70.216 L186.889,70.233 L186.889,64.833 L174.074,64.833 C173.049,64.676 166.739,63.362 165.686,55.358 L186.889,55.358 L186.889,49.958 L165.688,49.958 C166.735,42.062 172.885,40.692 174.081,40.505 L186.889,40.505 L186.889,35.104 L173.894,35.104 L173.586,35.123 L173.586,35.123 Z" id="Fill-74" sketch:type="MSShapeGroup"></path>
        </g>
    </g>
</svg>